<svg height="500" viewBox="0 0 499.99999 500.00003" width="500" xmlns="http://www.w3.org/2000/svg"><path d="m489.04297 249.29175c-89.91183 100.96615-363.43895 129.40454-478.11792 0 .000022-131.6463 107.03036-238.3667 239.05896-238.3667s239.05894 106.7204 239.05896 238.3667z"/><g transform="translate(-4.075192 -1025.3921)"><path d="m493.13403 1274.6681a239.05896 238.36674 0 0 1 -239.05896 238.3667 239.05896 238.36674 0 0 1 -239.058964-238.3667 239.05896 238.36674 0 0 1 239.058964-238.3667 239.05896 238.36674 0 0 1 239.05896 238.3667z" fill="none" stroke="#000" stroke-width="21.8501"/><path d="m489.19208 1290.2334c-22.4083 16.2198-43.40129 27.2185-71.81243 38.3285-103.67698 40.1307-231.17888 39.6354-334.167231-1.3091-24.712241-9.9143-46.399101-21.609-66.545918-35.4681 8.457326 125.5194 112.000379 222.6858 238.167499 222.6989 142.04456-5.5877 225.81454-116.9819 234.35808-224.2611z" fill="none" stroke="#000" stroke-width="21.8501"/><path d="m488.12403 1264.2389-11.11181 8.8648c-20.57461 14.8846-40.05162 24.3494-67.56867 35.1147-97.94963 37.9117-220.79486 37.4339-318.055862-1.2001h-.08753c-20.413337-8.1972-39.286851-17.8933-56.200409-28.8091-.431072-.2836-7.619254-6.8778-11.735663-9.7099l-14.4238424 35.2245c.8599558.589-2.3026246 8.1011 2.3971544 11.1339 19.473513 12.5653 40.850745 23.5094 63.722287 32.6863h.04376c108.702345 43.2027 240.819135 43.698 350.194785 1.3527h.0438.0438c29.25141-11.4481 49.18947-22.9683 73.39843-40.4907-8.39985-5.5687-.27196-12.4887.36871-22.4599l-11.02647-21.6898z" fill-rule="evenodd"/><path d="m308.25123 1345.2683a52.516387 52.364321 0 0 1 -52.51638 52.3643 52.516387 52.364321 0 0 1 -52.51641-52.3643 52.516387 52.364321 0 0 1 52.51641-52.3643 52.516387 52.364321 0 0 1 52.51638 52.3643z" stroke="#000" stroke-width="21.8501"/></g></svg>