<svg height="500" viewBox="0 0 499.99999 500.00003" width="500" xmlns="http://www.w3.org/2000/svg"><g transform="matrix(21.881827 0 0 21.818466 -89.168377 -22372.4761)"><path d="m26.424997 1036.8168a10.925 10.925 0 0 1 -10.925 10.925 10.925 10.925 0 0 1 -10.9250001-10.925 10.925 10.925 0 0 1 10.9250001-10.925 10.925 10.925 0 0 1 10.925 10.925z" fill="#fe0505" stroke="#000"/><path d="m26.24485 1037.5302c-1.02406.7434-1.98344 1.2475-3.28183 1.7567-4.73804 1.8393-10.56488 1.8166-15.27145-.06-1.12935-.4544-2.12044-.9904-3.04115-1.6256.3865 5.7529 5.11842 10.2063 10.88426 10.2069 6.49144-.2561 10.31973-5.3616 10.71017-10.2785z" fill="#fff" fill-rule="evenodd" stroke="#000"/><path d="m26.19604 1036.3388-.50781.4063c-.94026.6822-1.83036 1.116-3.08789 1.6094-4.4763 1.7376-10.09033 1.7157-14.53516-.055h-.004c-.93289-.3757-1.79541-.8201-2.56836-1.3204-.0197-.013-.1654-.1319-.35352-.2617l-.84197 1.4311c.0393.027-.10523.3713.10955.5103.88994.5759 1.86688 1.0775 2.91211 1.4981h.002c4.9677 1.9801 11.00544 2.0028 16.00391.062h.002.002c1.33679-.5247 2.43076-1.0527 3.53711-1.8558l-.0376-.1795-.12835-.8499-.50391-.9941z" fill-rule="evenodd"/><path d="m17.975849 1040.0526a2.4000001 2.4000001 0 0 1 -2.4 2.4 2.4000001 2.4000001 0 0 1 -2.400001-2.4 2.4000001 2.4000001 0 0 1 2.400001-2.4 2.4000001 2.4000001 0 0 1 2.4 2.4z" fill="#fff" stroke="#000"/></g></svg>